# Blender 3.6.5
# www.blender.org
o Cylinder
v -0.189911 -0.000000 -0.067171
v 0.250000 0.000000 -0.062500
v -0.189911 -0.013104 -0.065881
v 0.250000 -0.012193 -0.061299
v -0.189911 -0.025705 -0.062058
v 0.250000 -0.023918 -0.057742
v -0.189911 -0.037318 -0.055851
v 0.250000 -0.034723 -0.051967
v -0.189911 -0.047497 -0.047497
v 0.250000 -0.044194 -0.044194
v -0.189911 -0.055851 -0.037318
v 0.250000 -0.051967 -0.034723
v -0.189911 -0.062058 -0.025705
v 0.250000 -0.057742 -0.023918
v -0.189911 -0.065881 -0.013104
v 0.250000 -0.061299 -0.012193
v -0.189911 -0.067171 0.000000
v 0.250000 -0.062500 0.000000
v -0.189911 -0.065881 0.013104
v 0.250000 -0.061299 0.012193
v -0.189911 -0.062058 0.025705
v 0.250000 -0.057742 0.023918
v -0.189911 -0.055851 0.037318
v 0.250000 -0.051967 0.034723
v -0.189911 -0.047497 0.047497
v 0.250000 -0.044194 0.044194
v -0.189911 -0.037318 0.055851
v 0.250000 -0.034723 0.051967
v -0.189911 -0.025705 0.062058
v 0.250000 -0.023918 0.057742
v -0.189911 -0.013104 0.065881
v 0.250000 -0.012193 0.061299
v -0.189911 -0.000000 0.067171
v 0.250000 0.000000 0.062500
v -0.189911 0.013104 0.065881
v 0.250000 0.012193 0.061299
v -0.189911 0.025705 0.062058
v 0.250000 0.023918 0.057742
v -0.189911 0.037318 0.055851
v 0.250000 0.034723 0.051967
v -0.189911 0.047497 0.047497
v 0.250000 0.044194 0.044194
v -0.189911 0.055851 0.037318
v 0.250000 0.051967 0.034723
v -0.189911 0.062058 0.025705
v 0.250000 0.057742 0.023918
v -0.189911 0.065881 0.013104
v 0.250000 0.061299 0.012193
v -0.189911 0.067171 0.000000
v 0.250000 0.062500 0.000000
v -0.189911 0.065881 -0.013104
v 0.250000 0.061299 -0.012193
v -0.189911 0.062058 -0.025705
v 0.250000 0.057742 -0.023918
v -0.189911 0.055851 -0.037318
v 0.250000 0.051967 -0.034723
v -0.189911 0.047497 -0.047497
v 0.250000 0.044194 -0.044194
v -0.189911 0.037318 -0.055851
v 0.250000 0.034723 -0.051967
v -0.189911 0.025705 -0.062058
v 0.250000 0.023918 -0.057742
v -0.189911 0.013104 -0.065881
v 0.250000 0.012193 -0.061299
v -0.110465 -0.000000 -0.077035
v -0.110465 -0.015029 -0.075555
v -0.110465 -0.029480 -0.071171
v -0.110465 -0.042799 -0.064052
v -0.110465 -0.054472 -0.054472
v -0.110465 -0.064052 -0.042799
v -0.110465 -0.071171 -0.029480
v -0.110465 -0.075555 -0.015029
v -0.110465 -0.077035 0.000000
v -0.110465 -0.075555 0.015029
v -0.110465 -0.071171 0.029480
v -0.110465 -0.064052 0.042799
v -0.110465 -0.054472 0.054472
v -0.110465 -0.042799 0.064052
v -0.110465 -0.029480 0.071171
v -0.110465 -0.015029 0.075555
v -0.110465 -0.000000 0.077035
v -0.110465 0.015029 0.075555
v -0.110465 0.029480 0.071171
v -0.110465 0.042798 0.064052
v -0.110465 0.054472 0.054472
v -0.110465 0.064052 0.042799
v -0.110465 0.071171 0.029480
v -0.110465 0.075555 0.015029
v -0.110465 0.077035 0.000000
v -0.110465 0.075555 -0.015029
v -0.110465 0.071171 -0.029480
v -0.110465 0.064052 -0.042799
v -0.110465 0.054472 -0.054472
v -0.110465 0.042798 -0.064052
v -0.110465 0.029480 -0.071171
v -0.110465 0.015029 -0.075555
v -0.078125 -0.000000 -0.062500
v -0.078125 -0.012193 -0.061299
v -0.078125 -0.023918 -0.057742
v -0.078125 -0.034723 -0.051967
v -0.078125 -0.044194 -0.044194
v -0.078125 -0.051967 -0.034723
v -0.078125 -0.057742 -0.023918
v -0.078125 -0.061299 -0.012193
v -0.078125 -0.062500 0.000000
v -0.078125 -0.061299 0.012193
v -0.078125 -0.057742 0.023918
v -0.078125 -0.051967 0.034723
v -0.078125 -0.044194 0.044194
v -0.078125 -0.034723 0.051967
v -0.078125 -0.023918 0.057742
v -0.078125 -0.012193 0.061299
v -0.078125 -0.000000 0.062500
v -0.078125 0.012193 0.061299
v -0.078125 0.023918 0.057742
v -0.078125 0.034723 0.051967
v -0.078125 0.044194 0.044194
v -0.078125 0.051967 0.034723
v -0.078125 0.057742 0.023918
v -0.078125 0.061299 0.012193
v -0.078125 0.062500 0.000000
v -0.078125 0.061299 -0.012193
v -0.078125 0.057742 -0.023918
v -0.078125 0.051967 -0.034723
v -0.078125 0.044194 -0.044194
v -0.078125 0.034723 -0.051967
v -0.078125 0.023918 -0.057742
v -0.078125 0.012193 -0.061299
v -0.189911 -0.000000 -0.077035
v -0.189911 -0.015029 -0.075555
v -0.189911 -0.029480 -0.071171
v -0.189911 -0.042799 -0.064052
v -0.189911 -0.054472 -0.054472
v -0.189911 -0.064053 -0.042799
v -0.189911 -0.071171 -0.029480
v -0.189911 -0.075555 -0.015029
v -0.189911 -0.077035 0.000000
v -0.189911 -0.075555 0.015029
v -0.189911 -0.071171 0.029480
v -0.189911 -0.064053 0.042799
v -0.189911 -0.054472 0.054472
v -0.189911 -0.042799 0.064052
v -0.189911 -0.029480 0.071171
v -0.189911 -0.015029 0.075555
v -0.189911 -0.000000 0.077035
v -0.189911 0.015029 0.075555
v -0.189911 0.029480 0.071171
v -0.189911 0.042798 0.064052
v -0.189911 0.054472 0.054472
v -0.189911 0.064052 0.042799
v -0.189911 0.071171 0.029480
v -0.189911 0.075555 0.015029
v -0.189911 0.077035 0.000000
v -0.189911 0.075555 -0.015029
v -0.189911 0.071171 -0.029480
v -0.189911 0.064052 -0.042799
v -0.189911 0.054472 -0.054472
v -0.189911 0.042798 -0.064052
v -0.189911 0.029480 -0.071171
v -0.189911 0.015029 -0.075555
v -0.179806 -0.000000 -0.067171
v -0.179806 -0.013104 -0.065881
v -0.179806 -0.025705 -0.062058
v -0.179806 -0.037318 -0.055851
v -0.179806 -0.047497 -0.047497
v -0.179806 -0.055851 -0.037318
v -0.179806 -0.062058 -0.025705
v -0.179806 -0.065881 -0.013104
v -0.179806 -0.067171 0.000000
v -0.179806 -0.065881 0.013104
v -0.179806 -0.062058 0.025705
v -0.179806 -0.055851 0.037318
v -0.179806 -0.047497 0.047497
v -0.179806 -0.037318 0.055851
v -0.179806 -0.025705 0.062058
v -0.179806 -0.013104 0.065881
v -0.179806 -0.000000 0.067171
v -0.179806 0.013104 0.065881
v -0.179806 0.025705 0.062058
v -0.179806 0.037318 0.055851
v -0.179806 0.047497 0.047497
v -0.179806 0.055851 0.037318
v -0.179806 0.062058 0.025705
v -0.179806 0.065881 0.013104
v -0.179806 0.067171 0.000000
v -0.179806 0.065881 -0.013104
v -0.179806 0.062058 -0.025705
v -0.179806 0.055851 -0.037318
v -0.179806 0.047497 -0.047497
v -0.179806 0.037318 -0.055851
v -0.179806 0.025705 -0.062058
v -0.179806 0.013104 -0.065881
vn -0.0000 -0.0980 -0.9952
vn -0.0000 -0.2903 -0.9569
vn -0.0000 -0.4714 -0.8819
vn -0.0000 -0.6344 -0.7730
vn -0.0000 -0.7730 -0.6344
vn -0.0000 -0.8819 -0.4714
vn -0.0000 -0.9569 -0.2903
vn -0.0000 -0.9952 -0.0980
vn -0.0000 -0.9952 0.0980
vn -0.0000 -0.9569 0.2903
vn -0.0000 -0.8819 0.4714
vn -0.0000 -0.7730 0.6344
vn -0.0000 -0.6344 0.7730
vn -0.0000 -0.4714 0.8819
vn -0.0000 -0.2903 0.9569
vn -0.0000 -0.0980 0.9952
vn -0.0000 0.0980 0.9952
vn -0.0000 0.2903 0.9569
vn -0.0000 0.4714 0.8819
vn -0.0000 0.6344 0.7730
vn -0.0000 0.7730 0.6344
vn -0.0000 0.8819 0.4714
vn -0.0000 0.9569 0.2903
vn -0.0000 0.9952 0.0980
vn -0.0000 0.9952 -0.0980
vn -0.0000 0.9569 -0.2903
vn -0.0000 0.8819 -0.4714
vn -0.0000 0.7730 -0.6344
vn -0.0000 0.6344 -0.7730
vn -0.0000 0.4714 -0.8819
vn 1.0000 -0.0000 -0.0000
vn -0.0000 0.2903 -0.9569
vn -0.0000 0.0980 -0.9952
vn 0.4083 0.0895 -0.9084
vn 0.4083 0.2650 -0.8735
vn 0.4083 0.4303 -0.8051
vn 0.4083 0.5791 -0.7056
vn 0.4083 0.7056 -0.5791
vn 0.4083 0.8051 -0.4303
vn 0.4083 0.8735 -0.2650
vn 0.4083 0.9084 -0.0895
vn 0.4083 0.9084 0.0895
vn 0.4083 0.8735 0.2650
vn 0.4083 0.8051 0.4303
vn 0.4083 0.7056 0.5791
vn 0.4083 0.5791 0.7056
vn 0.4083 0.4303 0.8051
vn 0.4083 0.2650 0.8735
vn 0.4083 0.0895 0.9084
vn 0.4083 -0.0895 0.9084
vn 0.4083 -0.2650 0.8735
vn 0.4083 -0.4303 0.8051
vn 0.4083 -0.5791 0.7056
vn 0.4083 -0.7056 0.5791
vn 0.4083 -0.8051 0.4303
vn 0.4083 -0.8735 0.2650
vn 0.4083 -0.9084 0.0895
vn 0.4083 -0.9084 -0.0895
vn 0.4083 -0.8735 -0.2650
vn 0.4083 -0.8051 -0.4303
vn 0.4083 -0.7056 -0.5791
vn 0.4083 -0.5791 -0.7056
vn 0.4083 -0.4303 -0.8051
vn 0.4083 -0.2650 -0.8735
vn 0.4083 -0.0895 -0.9084
vn -1.0000 -0.0000 -0.0000
vt 1.000000 0.671875
vt 1.000000 1.000000
vt 0.968750 1.000000
vt 0.968750 0.671875
vt 0.937500 1.000000
vt 0.937500 0.671875
vt 0.906250 1.000000
vt 0.906250 0.671875
vt 0.875000 1.000000
vt 0.875000 0.671875
vt 0.843750 1.000000
vt 0.843750 0.671875
vt 0.812500 1.000000
vt 0.812500 0.671875
vt 0.781250 1.000000
vt 0.781250 0.671875
vt 0.750000 1.000000
vt 0.750000 0.671875
vt 0.718750 1.000000
vt 0.718750 0.671875
vt 0.687500 1.000000
vt 0.687500 0.671875
vt 0.656250 1.000000
vt 0.656250 0.671875
vt 0.625000 1.000000
vt 0.625000 0.671875
vt 0.593750 1.000000
vt 0.593750 0.671875
vt 0.562500 1.000000
vt 0.562500 0.671875
vt 0.531250 1.000000
vt 0.531250 0.671875
vt 0.500000 1.000000
vt 0.500000 0.671875
vt 0.468750 1.000000
vt 0.468750 0.671875
vt 0.437500 1.000000
vt 0.437500 0.671875
vt 0.406250 1.000000
vt 0.406250 0.671875
vt 0.375000 1.000000
vt 0.375000 0.671875
vt 0.343750 1.000000
vt 0.343750 0.671875
vt 0.312500 1.000000
vt 0.312500 0.671875
vt 0.281250 1.000000
vt 0.281250 0.671875
vt 0.250000 1.000000
vt 0.250000 0.671875
vt 0.218750 1.000000
vt 0.218750 0.671875
vt 0.187500 1.000000
vt 0.187500 0.671875
vt 0.156250 1.000000
vt 0.156250 0.671875
vt 0.125000 1.000000
vt 0.125000 0.671875
vt 0.093750 1.000000
vt 0.093750 0.671875
vt 0.062500 1.000000
vt 0.062500 0.671875
vt 0.296822 0.485388
vt 0.250000 0.490000
vt 0.203178 0.485388
vt 0.158156 0.471731
vt 0.116663 0.449553
vt 0.080294 0.419706
vt 0.050447 0.383337
vt 0.028269 0.341844
vt 0.014612 0.296822
vt 0.010000 0.250000
vt 0.014612 0.203178
vt 0.028269 0.158156
vt 0.050447 0.116663
vt 0.080294 0.080294
vt 0.116663 0.050447
vt 0.158156 0.028269
vt 0.203178 0.014612
vt 0.250000 0.010000
vt 0.296822 0.014612
vt 0.341844 0.028269
vt 0.383337 0.050447
vt 0.419706 0.080294
vt 0.449553 0.116663
vt 0.471731 0.158156
vt 0.485388 0.203178
vt 0.490000 0.250000
vt 0.485388 0.296822
vt 0.471731 0.341844
vt 0.449553 0.383337
vt 0.419706 0.419706
vt 0.383337 0.449553
vt 0.341844 0.471731
vt 0.031250 1.000000
vt 0.031250 0.671875
vt 0.000000 1.000000
vt 0.000000 0.671875
vt 0.897976 0.102024
vt 0.866264 0.075999
vt 0.031250 0.500000
vt 0.031250 0.625000
vt 0.000000 0.625000
vt 0.000000 0.500000
vt 0.062500 0.500000
vt 0.062500 0.625000
vt 0.093750 0.500000
vt 0.093750 0.625000
vt 0.125000 0.500000
vt 0.125000 0.625000
vt 0.156250 0.500000
vt 0.156250 0.625000
vt 0.187500 0.500000
vt 0.187500 0.625000
vt 0.218750 0.500000
vt 0.218750 0.625000
vt 0.250000 0.500000
vt 0.250000 0.625000
vt 0.281250 0.500000
vt 0.281250 0.625000
vt 0.312500 0.500000
vt 0.312500 0.625000
vt 0.343750 0.500000
vt 0.343750 0.625000
vt 0.375000 0.500000
vt 0.375000 0.625000
vt 0.406250 0.500000
vt 0.406250 0.625000
vt 0.437500 0.500000
vt 0.437500 0.625000
vt 0.468750 0.500000
vt 0.468750 0.625000
vt 0.500000 0.500000
vt 0.500000 0.625000
vt 0.531250 0.500000
vt 0.531250 0.625000
vt 0.562500 0.500000
vt 0.562500 0.625000
vt 0.593750 0.500000
vt 0.593750 0.625000
vt 0.625000 0.500000
vt 0.625000 0.625000
vt 0.656250 0.500000
vt 0.656250 0.625000
vt 0.687500 0.500000
vt 0.687500 0.625000
vt 0.718750 0.500000
vt 0.718750 0.625000
vt 0.750000 0.500000
vt 0.750000 0.625000
vt 0.781250 0.500000
vt 0.781250 0.625000
vt 0.812500 0.500000
vt 0.812500 0.625000
vt 0.843750 0.500000
vt 0.843750 0.625000
vt 0.875000 0.500000
vt 0.875000 0.625000
vt 0.906250 0.500000
vt 0.906250 0.625000
vt 0.937500 0.500000
vt 0.937500 0.625000
vt 0.968750 0.500000
vt 0.968750 0.625000
vt 1.000000 0.500000
vt 1.000000 0.625000
vt 0.790826 0.455248
vt 0.750000 0.459269
vt 0.750000 0.490000
vt 0.796822 0.485388
vt 0.830084 0.443340
vt 0.841844 0.471731
vt 0.866264 0.424001
vt 0.883337 0.449553
vt 0.897976 0.397976
vt 0.919706 0.419706
vt 0.924001 0.366264
vt 0.949553 0.383337
vt 0.943339 0.330084
vt 0.971731 0.341844
vt 0.955248 0.290826
vt 0.985388 0.296822
vt 0.959269 0.250000
vt 0.990000 0.250000
vt 0.955248 0.209174
vt 0.985388 0.203178
vt 0.943340 0.169916
vt 0.971731 0.158156
vt 0.924001 0.133736
vt 0.949553 0.116663
vt 0.919706 0.080294
vt 0.883337 0.050447
vt 0.830084 0.056660
vt 0.841844 0.028269
vt 0.790826 0.044752
vt 0.796822 0.014612
vt 0.750000 0.040731
vt 0.750000 0.010000
vt 0.709174 0.044752
vt 0.703178 0.014612
vt 0.669916 0.056660
vt 0.658156 0.028269
vt 0.633736 0.075999
vt 0.616663 0.050447
vt 0.602024 0.102024
vt 0.580294 0.080294
vt 0.575999 0.133736
vt 0.550447 0.116663
vt 0.556661 0.169916
vt 0.528269 0.158156
vt 0.544752 0.209174
vt 0.514612 0.203178
vt 0.540731 0.250000
vt 0.510000 0.250000
vt 0.544752 0.290826
vt 0.514612 0.296822
vt 0.556660 0.330084
vt 0.528269 0.341844
vt 0.575999 0.366264
vt 0.550447 0.383337
vt 0.602024 0.397976
vt 0.580294 0.419706
vt 0.633736 0.424001
vt 0.616663 0.449553
vt 0.669916 0.443340
vt 0.658156 0.471731
vt 0.709174 0.455248
vt 0.703178 0.485388
vt 0.750000 0.355477
vt 0.770578 0.353450
vt 0.790364 0.347448
vt 0.808600 0.337701
vt 0.824584 0.324584
vt 0.837701 0.308600
vt 0.847448 0.290364
vt 0.853450 0.270578
vt 0.855477 0.250000
vt 0.853450 0.229422
vt 0.847448 0.209636
vt 0.837701 0.191400
vt 0.824584 0.175416
vt 0.808600 0.162299
vt 0.790364 0.152552
vt 0.770578 0.146550
vt 0.750000 0.144523
vt 0.729422 0.146550
vt 0.709636 0.152552
vt 0.691400 0.162299
vt 0.675416 0.175416
vt 0.662299 0.191400
vt 0.652552 0.209636
vt 0.646550 0.229422
vt 0.644523 0.250000
vt 0.646550 0.270578
vt 0.652552 0.290364
vt 0.662299 0.308600
vt 0.675416 0.324584
vt 0.691400 0.337701
vt 0.709636 0.347448
vt 0.729422 0.353450
s 0
f 97/1/1 2/2/1 4/3/1 98/4/1
f 98/4/2 4/3/2 6/5/2 99/6/2
f 99/6/3 6/5/3 8/7/3 100/8/3
f 100/8/4 8/7/4 10/9/4 101/10/4
f 101/10/5 10/9/5 12/11/5 102/12/5
f 102/12/6 12/11/6 14/13/6 103/14/6
f 103/14/7 14/13/7 16/15/7 104/16/7
f 104/16/8 16/15/8 18/17/8 105/18/8
f 105/18/9 18/17/9 20/19/9 106/20/9
f 106/20/10 20/19/10 22/21/10 107/22/10
f 107/22/11 22/21/11 24/23/11 108/24/11
f 108/24/12 24/23/12 26/25/12 109/26/12
f 109/26/13 26/25/13 28/27/13 110/28/13
f 110/28/14 28/27/14 30/29/14 111/30/14
f 111/30/15 30/29/15 32/31/15 112/32/15
f 112/32/16 32/31/16 34/33/16 113/34/16
f 113/34/17 34/33/17 36/35/17 114/36/17
f 114/36/18 36/35/18 38/37/18 115/38/18
f 115/38/19 38/37/19 40/39/19 116/40/19
f 116/40/20 40/39/20 42/41/20 117/42/20
f 117/42/21 42/41/21 44/43/21 118/44/21
f 118/44/22 44/43/22 46/45/22 119/46/22
f 119/46/23 46/45/23 48/47/23 120/48/23
f 120/48/24 48/47/24 50/49/24 121/50/24
f 121/50/25 50/49/25 52/51/25 122/52/25
f 122/52/26 52/51/26 54/53/26 123/54/26
f 123/54/27 54/53/27 56/55/27 124/56/27
f 124/56/28 56/55/28 58/57/28 125/58/28
f 125/58/29 58/57/29 60/59/29 126/60/29
f 126/60/30 60/59/30 62/61/30 127/62/30
f 4/63/31 2/64/31 64/65/31 62/66/31 60/67/31 58/68/31 56/69/31 54/70/31 52/71/31 50/72/31 48/73/31 46/74/31 44/75/31 42/76/31 40/77/31 38/78/31 36/79/31 34/80/31 32/81/31 30/82/31 28/83/31 26/84/31 24/85/31 22/86/31 20/87/31 18/88/31 16/89/31 14/90/31 12/91/31 10/92/31 8/93/31 6/94/31
f 127/62/32 62/61/32 64/95/32 128/96/32
f 128/96/33 64/95/33 2/97/33 97/98/33
f 25/99/29 27/100/29 174/100/29 173/99/29
f 160/101/33 96/102/33 65/103/33 129/104/33
f 159/105/32 95/106/32 96/102/32 160/101/32
f 158/107/30 94/108/30 95/106/30 159/105/30
f 157/109/29 93/110/29 94/108/29 158/107/29
f 156/111/28 92/112/28 93/110/28 157/109/28
f 155/113/27 91/114/27 92/112/27 156/111/27
f 154/115/26 90/116/26 91/114/26 155/113/26
f 153/117/25 89/118/25 90/116/25 154/115/25
f 152/119/24 88/120/24 89/118/24 153/117/24
f 151/121/23 87/122/23 88/120/23 152/119/23
f 150/123/22 86/124/22 87/122/22 151/121/22
f 149/125/21 85/126/21 86/124/21 150/123/21
f 148/127/20 84/128/20 85/126/20 149/125/20
f 147/129/19 83/130/19 84/128/19 148/127/19
f 146/131/18 82/132/18 83/130/18 147/129/18
f 145/133/17 81/134/17 82/132/17 146/131/17
f 144/135/16 80/136/16 81/134/16 145/133/16
f 143/137/15 79/138/15 80/136/15 144/135/15
f 142/139/14 78/140/14 79/138/14 143/137/14
f 141/141/13 77/142/13 78/140/13 142/139/13
f 140/143/12 76/144/12 77/142/12 141/141/12
f 139/145/11 75/146/11 76/144/11 140/143/11
f 138/147/10 74/148/10 75/146/10 139/145/10
f 137/149/9 73/150/9 74/148/9 138/147/9
f 136/151/8 72/152/8 73/150/8 137/149/8
f 135/153/7 71/154/7 72/152/7 136/151/7
f 134/155/6 70/156/6 71/154/6 135/153/6
f 133/157/5 69/158/5 70/156/5 134/155/5
f 132/159/4 68/160/4 69/158/4 133/157/4
f 131/161/3 67/162/3 68/160/3 132/159/3
f 130/163/2 66/164/2 67/162/2 131/161/2
f 129/165/1 65/166/1 66/164/1 130/163/1
f 96/102/34 128/96/34 97/98/34 65/103/34
f 95/106/35 127/62/35 128/96/35 96/102/35
f 94/108/36 126/60/36 127/62/36 95/106/36
f 93/110/37 125/58/37 126/60/37 94/108/37
f 92/112/38 124/56/38 125/58/38 93/110/38
f 91/114/39 123/54/39 124/56/39 92/112/39
f 90/116/40 122/52/40 123/54/40 91/114/40
f 89/118/41 121/50/41 122/52/41 90/116/41
f 88/120/42 120/48/42 121/50/42 89/118/42
f 87/122/43 119/46/43 120/48/43 88/120/43
f 86/124/44 118/44/44 119/46/44 87/122/44
f 85/126/45 117/42/45 118/44/45 86/124/45
f 84/128/46 116/40/46 117/42/46 85/126/46
f 83/130/47 115/38/47 116/40/47 84/128/47
f 82/132/48 114/36/48 115/38/48 83/130/48
f 81/134/49 113/34/49 114/36/49 82/132/49
f 80/136/50 112/32/50 113/34/50 81/134/50
f 79/138/51 111/30/51 112/32/51 80/136/51
f 78/140/52 110/28/52 111/30/52 79/138/52
f 77/142/53 109/26/53 110/28/53 78/140/53
f 76/144/54 108/24/54 109/26/54 77/142/54
f 75/146/55 107/22/55 108/24/55 76/144/55
f 74/148/56 106/20/56 107/22/56 75/146/56
f 73/150/57 105/18/57 106/20/57 74/148/57
f 72/152/58 104/16/58 105/18/58 73/150/58
f 71/154/59 103/14/59 104/16/59 72/152/59
f 70/156/60 102/12/60 103/14/60 71/154/60
f 69/158/61 101/10/61 102/12/61 70/156/61
f 68/160/62 100/8/62 101/10/62 69/158/62
f 67/162/63 99/6/63 100/8/63 68/160/63
f 66/164/64 98/4/64 99/6/64 67/162/64
f 65/166/65 97/1/65 98/4/65 66/164/65
f 3/167/66 1/168/66 129/169/66 130/170/66
f 5/171/66 3/167/66 130/170/66 131/172/66
f 7/173/66 5/171/66 131/172/66 132/174/66
f 9/175/66 7/173/66 132/174/66 133/176/66
f 11/177/66 9/175/66 133/176/66 134/178/66
f 13/179/66 11/177/66 134/178/66 135/180/66
f 15/181/66 13/179/66 135/180/66 136/182/66
f 17/183/66 15/181/66 136/182/66 137/184/66
f 19/185/66 17/183/66 137/184/66 138/186/66
f 21/187/66 19/185/66 138/186/66 139/188/66
f 23/189/66 21/187/66 139/188/66 140/190/66
f 25/99/66 23/189/66 140/190/66 141/191/66
f 27/100/66 25/99/66 141/191/66 142/192/66
f 29/193/66 27/100/66 142/192/66 143/194/66
f 31/195/66 29/193/66 143/194/66 144/196/66
f 33/197/66 31/195/66 144/196/66 145/198/66
f 35/199/66 33/197/66 145/198/66 146/200/66
f 37/201/66 35/199/66 146/200/66 147/202/66
f 39/203/66 37/201/66 147/202/66 148/204/66
f 41/205/66 39/203/66 148/204/66 149/206/66
f 43/207/66 41/205/66 149/206/66 150/208/66
f 45/209/66 43/207/66 150/208/66 151/210/66
f 47/211/66 45/209/66 151/210/66 152/212/66
f 49/213/66 47/211/66 152/212/66 153/214/66
f 51/215/66 49/213/66 153/214/66 154/216/66
f 53/217/66 51/215/66 154/216/66 155/218/66
f 55/219/66 53/217/66 155/218/66 156/220/66
f 57/221/66 55/219/66 156/220/66 157/222/66
f 59/223/66 57/221/66 157/222/66 158/224/66
f 61/225/66 59/223/66 158/224/66 159/226/66
f 63/227/66 61/225/66 159/226/66 160/228/66
f 1/168/66 63/227/66 160/228/66 129/169/66
f 161/229/66 162/230/66 163/231/66 164/232/66 165/233/66 166/234/66 167/235/66 168/236/66 169/237/66 170/238/66 171/239/66 172/240/66 173/241/66 174/242/66 175/243/66 176/244/66 177/245/66 178/246/66 179/247/66 180/248/66 181/249/66 182/250/66 183/251/66 184/252/66 185/253/66 186/254/66 187/255/66 188/256/66 189/257/66 190/258/66 191/259/66 192/260/66
f 53/217/11 55/219/11 188/219/11 187/217/11
f 27/100/30 29/193/30 175/193/30 174/100/30
f 1/168/17 3/167/17 162/167/17 161/168/17
f 55/219/12 57/221/12 189/221/12 188/219/12
f 29/193/32 31/195/32 176/195/32 175/193/32
f 3/167/18 5/171/18 163/171/18 162/167/18
f 57/221/13 59/223/13 190/223/13 189/221/13
f 31/195/33 33/197/33 177/197/33 176/195/33
f 5/171/19 7/173/19 164/173/19 163/171/19
f 59/223/14 61/225/14 191/225/14 190/223/14
f 33/197/1 35/199/1 178/199/1 177/197/1
f 7/173/20 9/175/20 165/175/20 164/173/20
f 61/225/15 63/227/15 192/227/15 191/225/15
f 35/199/2 37/201/2 179/201/2 178/199/2
f 9/175/21 11/177/21 166/177/21 165/175/21
f 63/227/16 1/168/16 161/168/16 192/227/16
f 37/201/3 39/203/3 180/203/3 179/201/3
f 11/177/22 13/179/22 167/179/22 166/177/22
f 39/203/4 41/205/4 181/205/4 180/203/4
f 13/179/23 15/181/23 168/181/23 167/179/23
f 41/205/5 43/207/5 182/207/5 181/205/5
f 15/181/24 17/183/24 169/183/24 168/181/24
f 43/207/6 45/209/6 183/209/6 182/207/6
f 17/183/25 19/185/25 170/185/25 169/183/25
f 45/209/7 47/211/7 184/211/7 183/209/7
f 19/185/26 21/187/26 171/187/26 170/185/26
f 47/211/8 49/213/8 185/213/8 184/211/8
f 21/187/27 23/189/27 172/189/27 171/187/27
f 49/213/9 51/215/9 186/215/9 185/213/9
f 23/189/28 25/99/28 173/99/28 172/189/28
f 51/215/10 53/217/10 187/217/10 186/215/10
