# Blender 3.6.5
# www.blender.org
o Cube
v 0.500000 0.500000 -0.500000
v 0.500000 -0.500000 -0.500000
v 0.500000 0.500000 0.500000
v 0.500000 -0.500000 0.500000
v 0.250000 0.500000 -0.500000
v 0.250000 -0.500000 -0.500000
v 0.250000 0.500000 0.500000
v 0.250000 -0.500000 0.500000
vn -0.0000 1.0000 -0.0000
vn -0.0000 -0.0000 1.0000
vn -1.0000 -0.0000 -0.0000
vn -0.0000 -1.0000 -0.0000
vn 1.0000 -0.0000 -0.0000
vn -0.0000 -0.0000 -1.0000
vt 1.000000 -0.000000
vt 1.000000 0.125000
vt 0.500000 0.125000
vt 0.500000 0.000000
vt 1.000000 0.250000
vt 0.500000 0.250000
vt 0.000000 0.500000
vt 0.000000 0.000000
vt 0.500000 0.000000
vt 0.500000 0.500000
vt 1.000000 0.375000
vt 0.500000 0.375000
vt 0.000000 1.000000
vt 0.500000 1.000000
vt 1.000000 0.500000
s 0
f 1/1/1 5/2/1 7/3/1 3/4/1
f 4/5/2 3/6/2 7/3/2 8/2/2
f 8/7/3 7/8/3 5/9/3 6/10/3
f 6/5/4 2/11/4 4/12/4 8/6/4
f 2/13/5 1/7/5 3/10/5 4/14/5
f 6/15/6 5/10/6 1/12/6 2/11/6
